<svg xmlns="http://www.w3.org/2000/svg" width="1200" height="520" viewBox="0 0 1200 520" role="img" aria-labelledby="title desc">
<title id="title">Composite Ca II K Polar Network Index</title>
<desc id="desc">Line plot of yearly north and south solar polar measurements from 1904 to 2022.</desc>
<rect width="100%" height="100%" fill="white"/>
<text x="600.0" y="28" text-anchor="middle" font-family="Arial, sans-serif" font-size="22" font-weight="700">Composite Ca II K Polar Network Index</text>
<line x1="137.5" y1="56" x2="137.5" y2="442" stroke="#e5e7eb" stroke-width="1"/>
<text x="137.5" y="478" text-anchor="middle" font-family="Arial, sans-serif" font-size="15" fill="#111827">1910</text>
<line x1="230.1" y1="56" x2="230.1" y2="442" stroke="#e5e7eb" stroke-width="1"/>
<text x="230.1" y="478" text-anchor="middle" font-family="Arial, sans-serif" font-size="15" fill="#111827">1920</text>
<line x1="322.6" y1="56" x2="322.6" y2="442" stroke="#e5e7eb" stroke-width="1"/>
<text x="322.6" y="478" text-anchor="middle" font-family="Arial, sans-serif" font-size="15" fill="#111827">1930</text>
<line x1="415.2" y1="56" x2="415.2" y2="442" stroke="#e5e7eb" stroke-width="1"/>
<text x="415.2" y="478" text-anchor="middle" font-family="Arial, sans-serif" font-size="15" fill="#111827">1940</text>
<line x1="507.7" y1="56" x2="507.7" y2="442" stroke="#e5e7eb" stroke-width="1"/>
<text x="507.7" y="478" text-anchor="middle" font-family="Arial, sans-serif" font-size="15" fill="#111827">1950</text>
<line x1="600.2" y1="56" x2="600.2" y2="442" stroke="#e5e7eb" stroke-width="1"/>
<text x="600.2" y="478" text-anchor="middle" font-family="Arial, sans-serif" font-size="15" fill="#111827">1960</text>
<line x1="692.8" y1="56" x2="692.8" y2="442" stroke="#e5e7eb" stroke-width="1"/>
<text x="692.8" y="478" text-anchor="middle" font-family="Arial, sans-serif" font-size="15" fill="#111827">1970</text>
<line x1="785.3" y1="56" x2="785.3" y2="442" stroke="#e5e7eb" stroke-width="1"/>
<text x="785.3" y="478" text-anchor="middle" font-family="Arial, sans-serif" font-size="15" fill="#111827">1980</text>
<line x1="877.9" y1="56" x2="877.9" y2="442" stroke="#e5e7eb" stroke-width="1"/>
<text x="877.9" y="478" text-anchor="middle" font-family="Arial, sans-serif" font-size="15" fill="#111827">1990</text>
<line x1="970.4" y1="56" x2="970.4" y2="442" stroke="#e5e7eb" stroke-width="1"/>
<text x="970.4" y="478" text-anchor="middle" font-family="Arial, sans-serif" font-size="15" fill="#111827">2000</text>
<line x1="1062.9" y1="56" x2="1062.9" y2="442" stroke="#e5e7eb" stroke-width="1"/>
<text x="1062.9" y="478" text-anchor="middle" font-family="Arial, sans-serif" font-size="15" fill="#111827">2010</text>
<line x1="1155.5" y1="56" x2="1155.5" y2="442" stroke="#e5e7eb" stroke-width="1"/>
<text x="1155.5" y="478" text-anchor="middle" font-family="Arial, sans-serif" font-size="15" fill="#111827">2020</text>
<line x1="82" y1="442.0" x2="1174" y2="442.0" stroke="#e5e7eb" stroke-width="1.8"/>
<text x="70" y="447.0" text-anchor="end" font-family="Arial, sans-serif" font-size="15" fill="#111827">-8</text>
<line x1="82" y1="345.5" x2="1174" y2="345.5" stroke="#e5e7eb" stroke-width="1.8"/>
<text x="70" y="350.5" text-anchor="end" font-family="Arial, sans-serif" font-size="15" fill="#111827">-4</text>
<line x1="82" y1="249.0" x2="1174" y2="249.0" stroke="#9ca3af" stroke-width="1.8" stroke-dasharray="8 7"/>
<text x="70" y="254.0" text-anchor="end" font-family="Arial, sans-serif" font-size="15" fill="#111827">0</text>
<line x1="82" y1="152.5" x2="1174" y2="152.5" stroke="#e5e7eb" stroke-width="1.8"/>
<text x="70" y="157.5" text-anchor="end" font-family="Arial, sans-serif" font-size="15" fill="#111827">4</text>
<line x1="82" y1="56.0" x2="1174" y2="56.0" stroke="#e5e7eb" stroke-width="1.8"/>
<text x="70" y="61.0" text-anchor="end" font-family="Arial, sans-serif" font-size="15" fill="#111827">8</text>
<rect x="82" y="56" width="1092" height="386" fill="none" stroke="#111827" stroke-width="2"/>
<text x="600.0" y="510" text-anchor="middle" font-family="Arial, sans-serif" font-size="20" font-weight="700">Time [Year]</text>
<text transform="translate(22 260.0) rotate(-90)" text-anchor="middle" font-family="Arial, sans-serif" font-size="20" font-weight="700">PNI [10^3]</text>
<polyline points="82.0,-48002.2 91.3,-48050.0 100.5,-79939.1 109.8,-60465.9 119.0,-55141.5 128.3,-62257.2 137.5,-75016.7 146.8,-90755.6 156.0,-115193.9 165.3,-85544.1 174.5,-97713.0 183.8,-59641.8 193.1,-70486.7 202.3,42699.3 211.6,61850.7 220.8,68083.2 230.1,76144.8 239.3,120306.6 248.6,122425.0 257.8,102126.2 267.1,70753.6 276.3,59395.5 285.6,41216.6 294.8,46500.2 304.1,-33108.6 313.4,-46365.6 322.6,-61628.0 331.9,-84745.8 341.1,-80214.4 350.4,-114078.2 359.6,-95841.1 368.9,-76110.5 378.1,-56432.4 387.4,-38415.2 396.6,32974.1 405.9,43071.6 415.2,61007.6 424.4,77360.0 433.7,94828.2 442.9,143340.6 452.2,131597.3 461.4,127368.2 470.7,49214.8 479.9,-20976.9 489.2,-35628.0 498.4,-37281.1 507.7,-54339.4 516.9,-102756.3 526.2,-152494.3 535.5,-142656.2 544.7,-176238.6 554.0,-120550.2 563.2,-69281.2 572.5,-27758.0 581.7,25166.0 591.0,40061.8 600.2,107187.9 609.5,109557.9 618.7,126199.8 628.0,136144.4 637.3,111361.3 646.5,91171.5 655.8,76011.9 665.0,54789.8 674.3,46843.5 683.5,53272.6 692.8,51626.6 702.0,-26254.7 711.3,-47088.4 720.5,-64445.1 729.8,-74114.1 739.1,-51833.0 748.3,-82446.4 757.6,-68178.7 766.8,-60725.2 776.1,-24012.5 785.3,14726.9 794.6,3417.3 803.8,8396.5 813.1,45512.3 822.3,86701.9 831.6,89870.5 840.8,90775.7 850.1,108881.0 859.4,98470.3 868.6,72217.7 877.9,52754.4 887.1,-1561.6 896.4,-8768.0 905.6,-71135.7 914.9,-65499.8 924.1,-43333.1 933.4,-53853.0 942.6,-50471.6 951.9,-78274.0 961.2,-37697.5 970.4,-23420.5 979.7,24200.1 988.9,25476.0 998.2,35408.8 1007.4,38830.9 1016.7,37752.5 1025.9,52407.7 1035.2,58828.6 1044.4,58669.6 1053.7,45357.7 1062.9,35550.9 1072.2,44104.4 1081.5,20607.4 1090.7,18579.9 1100.0,-16753.8 1109.2,-19336.2 1118.5,-30218.2 1127.7,-39780.6 1137.0,-49886.6 1146.2,-54630.6 1155.5,-51380.4 1164.7,-43453.7 1174.0,-43606.4" fill="none" stroke="#e11d48" stroke-width="3" stroke-linejoin="round" stroke-linecap="round"/>
<circle cx="82.0" cy="-48002.2" r="3.2" fill="#e11d48"/>
<circle cx="128.3" cy="-62257.2" r="3.2" fill="#e11d48"/>
<circle cx="174.5" cy="-97713.0" r="3.2" fill="#e11d48"/>
<circle cx="220.8" cy="68083.2" r="3.2" fill="#e11d48"/>
<circle cx="267.1" cy="70753.6" r="3.2" fill="#e11d48"/>
<circle cx="313.4" cy="-46365.6" r="3.2" fill="#e11d48"/>
<circle cx="359.6" cy="-95841.1" r="3.2" fill="#e11d48"/>
<circle cx="405.9" cy="43071.6" r="3.2" fill="#e11d48"/>
<circle cx="452.2" cy="131597.3" r="3.2" fill="#e11d48"/>
<circle cx="498.4" cy="-37281.1" r="3.2" fill="#e11d48"/>
<circle cx="544.7" cy="-176238.6" r="3.2" fill="#e11d48"/>
<circle cx="591.0" cy="40061.8" r="3.2" fill="#e11d48"/>
<circle cx="637.3" cy="111361.3" r="3.2" fill="#e11d48"/>
<circle cx="683.5" cy="53272.6" r="3.2" fill="#e11d48"/>
<circle cx="729.8" cy="-74114.1" r="3.2" fill="#e11d48"/>
<circle cx="776.1" cy="-24012.5" r="3.2" fill="#e11d48"/>
<circle cx="822.3" cy="86701.9" r="3.2" fill="#e11d48"/>
<circle cx="868.6" cy="72217.7" r="3.2" fill="#e11d48"/>
<circle cx="914.9" cy="-65499.8" r="3.2" fill="#e11d48"/>
<circle cx="961.2" cy="-37697.5" r="3.2" fill="#e11d48"/>
<circle cx="1007.4" cy="38830.9" r="3.2" fill="#e11d48"/>
<circle cx="1053.7" cy="45357.7" r="3.2" fill="#e11d48"/>
<circle cx="1100.0" cy="-16753.8" r="3.2" fill="#e11d48"/>
<circle cx="1146.2" cy="-54630.6" r="3.2" fill="#e11d48"/>
<polyline points="82.0,-29669.6 91.3,-32272.7 100.5,-21129.6 109.8,20237.5 119.0,30328.0 128.3,50820.5 137.5,59838.7 146.8,89492.0 156.0,92685.1 165.3,109625.0 174.5,86078.5 183.8,83398.7 193.1,56587.6 202.3,-40061.0 211.6,-40274.2 220.8,-58124.8 230.1,-83308.2 239.3,-88455.5 248.6,-66024.8 257.8,-107782.8 267.1,-97780.0 276.3,-75986.2 285.6,-45729.1 294.8,43806.4 304.1,45687.5 313.4,46679.7 322.6,42980.2 331.9,74249.5 341.1,96826.9 350.4,93365.5 359.6,91178.3 368.9,73873.0 378.1,66374.7 387.4,-24290.0 396.6,-36550.3 405.9,-31604.4 415.2,-45162.9 424.4,-63011.8 433.7,-64505.6 442.9,-83946.5 452.2,-116152.0 461.4,-67034.4 470.7,-32495.9 479.9,-19157.6 489.2,-31457.8 498.4,-14935.8 507.7,14147.9 516.9,52731.5 526.2,80423.1 535.5,90783.6 544.7,92922.5 554.0,99931.1 563.2,62373.0 572.5,37449.5 581.7,32025.2 591.0,33895.7 600.2,-11061.0 609.5,-57363.2 618.7,-59439.6 628.0,-46906.9 637.3,-50252.3 646.5,-82520.7 655.8,-52109.0 665.0,-57198.2 674.3,-42318.8 683.5,-44962.2 692.8,33140.1 702.0,43002.8 711.3,30891.4 720.5,65901.3 729.8,120549.5 739.1,113030.5 748.3,125901.9 757.6,116539.9 766.8,93844.3 776.1,42239.3 785.3,14777.8 794.6,-4277.3 803.8,-33245.9 813.1,-25098.4 822.3,-80319.8 831.6,-106572.4 840.8,-97519.7 850.1,-117435.6 859.4,-62214.5 868.6,-28719.6 877.9,-2466.8 887.1,-1319.8 896.4,12271.7 905.6,48339.5 914.9,67124.9 924.1,72384.9 933.4,83280.5 942.6,46085.3 951.9,32559.9 961.2,47588.3 970.4,20537.2 979.7,5289.2 988.9,-4536.9 998.2,-6363.4 1007.4,-21564.6 1016.7,-24727.1 1025.9,-29645.3 1035.2,-29019.9 1044.4,-30236.8 1053.7,-38061.3 1062.9,-26920.8 1072.2,-20333.5 1081.5,-19388.8 1090.7,-21236.7 1100.0,12715.1 1109.2,20065.5 1118.5,30267.5 1127.7,36730.1 1137.0,40582.6 1146.2,33357.4 1155.5,36442.8 1164.7,38224.4 1174.0,24213.6" fill="none" stroke="#3b82b6" stroke-width="3" stroke-linejoin="round" stroke-linecap="round" stroke-dasharray="10 7"/>
<circle cx="82.0" cy="-29669.6" r="3.2" fill="#3b82b6"/>
<circle cx="128.3" cy="50820.5" r="3.2" fill="#3b82b6"/>
<circle cx="174.5" cy="86078.5" r="3.2" fill="#3b82b6"/>
<circle cx="220.8" cy="-58124.8" r="3.2" fill="#3b82b6"/>
<circle cx="267.1" cy="-97780.0" r="3.2" fill="#3b82b6"/>
<circle cx="313.4" cy="46679.7" r="3.2" fill="#3b82b6"/>
<circle cx="359.6" cy="91178.3" r="3.2" fill="#3b82b6"/>
<circle cx="405.9" cy="-31604.4" r="3.2" fill="#3b82b6"/>
<circle cx="452.2" cy="-116152.0" r="3.2" fill="#3b82b6"/>
<circle cx="498.4" cy="-14935.8" r="3.2" fill="#3b82b6"/>
<circle cx="544.7" cy="92922.5" r="3.2" fill="#3b82b6"/>
<circle cx="591.0" cy="33895.7" r="3.2" fill="#3b82b6"/>
<circle cx="637.3" cy="-50252.3" r="3.2" fill="#3b82b6"/>
<circle cx="683.5" cy="-44962.2" r="3.2" fill="#3b82b6"/>
<circle cx="729.8" cy="120549.5" r="3.2" fill="#3b82b6"/>
<circle cx="776.1" cy="42239.3" r="3.2" fill="#3b82b6"/>
<circle cx="822.3" cy="-80319.8" r="3.2" fill="#3b82b6"/>
<circle cx="868.6" cy="-28719.6" r="3.2" fill="#3b82b6"/>
<circle cx="914.9" cy="67124.9" r="3.2" fill="#3b82b6"/>
<circle cx="961.2" cy="47588.3" r="3.2" fill="#3b82b6"/>
<circle cx="1007.4" cy="-21564.6" r="3.2" fill="#3b82b6"/>
<circle cx="1053.7" cy="-38061.3" r="3.2" fill="#3b82b6"/>
<circle cx="1100.0" cy="12715.1" r="3.2" fill="#3b82b6"/>
<circle cx="1146.2" cy="33357.4" r="3.2" fill="#3b82b6"/>
<line x1="100" y1="74" x2="134" y2="74" stroke="#e11d48" stroke-width="4" stroke-linecap="round"/>
<text x="144" y="79" font-family="Arial, sans-serif" font-size="17" fill="#e11d48" font-weight="700">PNI North</text>
<line x1="360" y1="74" x2="394" y2="74" stroke="#3b82b6" stroke-width="4" stroke-linecap="round" stroke-dasharray="10 7"/>
<text x="404" y="79" font-family="Arial, sans-serif" font-size="17" fill="#3b82b6" font-weight="700">PNI South</text>
</svg>