<svg xmlns="http://www.w3.org/2000/svg" width="1200" height="520" viewBox="0 0 1200 520" role="img" aria-labelledby="title desc">
<title id="title">Reconstructed Polar Magnetic Field from PNI</title>
<desc id="desc">Line plot of yearly north and south solar polar measurements from 1904 to 2022.</desc>
<rect width="100%" height="100%" fill="white"/>
<text x="600.0" y="28" text-anchor="middle" font-family="Arial, sans-serif" font-size="22" font-weight="700">Reconstructed Polar Magnetic Field from PNI</text>
<line x1="137.5" y1="56" x2="137.5" y2="442" stroke="#e5e7eb" stroke-width="1"/>
<text x="137.5" y="478" text-anchor="middle" font-family="Arial, sans-serif" font-size="15" fill="#111827">1910</text>
<line x1="230.1" y1="56" x2="230.1" y2="442" stroke="#e5e7eb" stroke-width="1"/>
<text x="230.1" y="478" text-anchor="middle" font-family="Arial, sans-serif" font-size="15" fill="#111827">1920</text>
<line x1="322.6" y1="56" x2="322.6" y2="442" stroke="#e5e7eb" stroke-width="1"/>
<text x="322.6" y="478" text-anchor="middle" font-family="Arial, sans-serif" font-size="15" fill="#111827">1930</text>
<line x1="415.2" y1="56" x2="415.2" y2="442" stroke="#e5e7eb" stroke-width="1"/>
<text x="415.2" y="478" text-anchor="middle" font-family="Arial, sans-serif" font-size="15" fill="#111827">1940</text>
<line x1="507.7" y1="56" x2="507.7" y2="442" stroke="#e5e7eb" stroke-width="1"/>
<text x="507.7" y="478" text-anchor="middle" font-family="Arial, sans-serif" font-size="15" fill="#111827">1950</text>
<line x1="600.2" y1="56" x2="600.2" y2="442" stroke="#e5e7eb" stroke-width="1"/>
<text x="600.2" y="478" text-anchor="middle" font-family="Arial, sans-serif" font-size="15" fill="#111827">1960</text>
<line x1="692.8" y1="56" x2="692.8" y2="442" stroke="#e5e7eb" stroke-width="1"/>
<text x="692.8" y="478" text-anchor="middle" font-family="Arial, sans-serif" font-size="15" fill="#111827">1970</text>
<line x1="785.3" y1="56" x2="785.3" y2="442" stroke="#e5e7eb" stroke-width="1"/>
<text x="785.3" y="478" text-anchor="middle" font-family="Arial, sans-serif" font-size="15" fill="#111827">1980</text>
<line x1="877.9" y1="56" x2="877.9" y2="442" stroke="#e5e7eb" stroke-width="1"/>
<text x="877.9" y="478" text-anchor="middle" font-family="Arial, sans-serif" font-size="15" fill="#111827">1990</text>
<line x1="970.4" y1="56" x2="970.4" y2="442" stroke="#e5e7eb" stroke-width="1"/>
<text x="970.4" y="478" text-anchor="middle" font-family="Arial, sans-serif" font-size="15" fill="#111827">2000</text>
<line x1="1062.9" y1="56" x2="1062.9" y2="442" stroke="#e5e7eb" stroke-width="1"/>
<text x="1062.9" y="478" text-anchor="middle" font-family="Arial, sans-serif" font-size="15" fill="#111827">2010</text>
<line x1="1155.5" y1="56" x2="1155.5" y2="442" stroke="#e5e7eb" stroke-width="1"/>
<text x="1155.5" y="478" text-anchor="middle" font-family="Arial, sans-serif" font-size="15" fill="#111827">2020</text>
<line x1="82" y1="442.0" x2="1174" y2="442.0" stroke="#e5e7eb" stroke-width="1.8"/>
<text x="70" y="447.0" text-anchor="end" font-family="Arial, sans-serif" font-size="15" fill="#111827">-20</text>
<line x1="82" y1="345.5" x2="1174" y2="345.5" stroke="#e5e7eb" stroke-width="1.8"/>
<text x="70" y="350.5" text-anchor="end" font-family="Arial, sans-serif" font-size="15" fill="#111827">-10</text>
<line x1="82" y1="249.0" x2="1174" y2="249.0" stroke="#9ca3af" stroke-width="1.8" stroke-dasharray="8 7"/>
<text x="70" y="254.0" text-anchor="end" font-family="Arial, sans-serif" font-size="15" fill="#111827">0</text>
<line x1="82" y1="152.5" x2="1174" y2="152.5" stroke="#e5e7eb" stroke-width="1.8"/>
<text x="70" y="157.5" text-anchor="end" font-family="Arial, sans-serif" font-size="15" fill="#111827">10</text>
<line x1="82" y1="56.0" x2="1174" y2="56.0" stroke="#e5e7eb" stroke-width="1.8"/>
<text x="70" y="61.0" text-anchor="end" font-family="Arial, sans-serif" font-size="15" fill="#111827">20</text>
<rect x="82" y="56" width="1092" height="386" fill="none" stroke="#111827" stroke-width="2"/>
<text x="600.0" y="510" text-anchor="middle" font-family="Arial, sans-serif" font-size="20" font-weight="700">Time [Year]</text>
<text transform="translate(22 260.0) rotate(-90)" text-anchor="middle" font-family="Arial, sans-serif" font-size="20" font-weight="700">B_P [G]</text>
<polyline points="82.0,240.9 91.3,240.9 100.5,235.5 109.8,238.8 119.0,239.7 128.3,238.5 137.5,236.4 146.8,233.8 156.0,229.6 165.3,234.6 174.5,232.5 183.8,239.0 193.1,237.1 202.3,256.1 211.6,259.3 220.8,260.4 230.1,261.7 239.3,269.2 248.6,269.6 257.8,266.1 267.1,260.9 276.3,258.9 285.6,255.9 294.8,256.8 304.1,243.4 313.4,241.2 322.6,238.6 331.9,234.7 341.1,235.5 350.4,229.8 359.6,232.9 368.9,236.2 378.1,239.4 387.4,242.5 396.6,254.5 405.9,256.2 415.2,259.2 424.4,261.9 433.7,264.9 442.9,273.0 452.2,271.1 461.4,270.3 470.7,257.2 479.9,245.4 489.2,243.0 498.4,242.7 507.7,239.8 516.9,231.7 526.2,223.3 535.5,225.0 544.7,219.4 554.0,228.7 563.2,237.3 572.5,244.3 581.7,253.1 591.0,255.7 600.2,266.9 609.5,267.3 618.7,270.1 628.0,271.9 637.3,267.6 646.5,264.2 655.8,261.7 665.0,258.2 674.3,256.8 683.5,257.9 692.8,257.6 702.0,244.6 711.3,241.1 720.5,238.1 729.8,236.6 739.1,240.2 748.3,235.1 757.6,237.5 766.8,238.8 776.1,244.9 785.3,251.4 794.6,249.6 803.8,250.4 813.1,256.6 822.3,263.6 831.6,264.1 840.8,264.2 850.1,267.2 859.4,265.5 868.6,261.1 877.9,240.2 887.1,248.7 896.4,247.5 905.6,237.0 914.9,238.0 924.1,241.7 933.4,239.9 942.6,240.5 951.9,235.8 961.2,242.6 970.4,245.0 979.7,253.1 988.9,253.2 998.2,254.9 1007.4,255.5 1016.7,255.3 1025.9,257.8 1035.2,258.8 1044.4,258.8 1053.7,256.6 1062.9,254.9 1072.2,256.3 1081.5,252.4 1090.7,252.1 1100.0,246.1 1109.2,245.7 1118.5,243.9 1127.7,242.2 1137.0,240.6 1146.2,239.7 1155.5,240.3 1164.7,241.7 1174.0,241.7" fill="none" stroke="#e11d48" stroke-width="3" stroke-linejoin="round" stroke-linecap="round"/>
<circle cx="82.0" cy="240.9" r="3.2" fill="#e11d48"/>
<circle cx="128.3" cy="238.5" r="3.2" fill="#e11d48"/>
<circle cx="174.5" cy="232.5" r="3.2" fill="#e11d48"/>
<circle cx="220.8" cy="260.4" r="3.2" fill="#e11d48"/>
<circle cx="267.1" cy="260.9" r="3.2" fill="#e11d48"/>
<circle cx="313.4" cy="241.2" r="3.2" fill="#e11d48"/>
<circle cx="359.6" cy="232.9" r="3.2" fill="#e11d48"/>
<circle cx="405.9" cy="256.2" r="3.2" fill="#e11d48"/>
<circle cx="452.2" cy="271.1" r="3.2" fill="#e11d48"/>
<circle cx="498.4" cy="242.7" r="3.2" fill="#e11d48"/>
<circle cx="544.7" cy="219.4" r="3.2" fill="#e11d48"/>
<circle cx="591.0" cy="255.7" r="3.2" fill="#e11d48"/>
<circle cx="637.3" cy="267.6" r="3.2" fill="#e11d48"/>
<circle cx="683.5" cy="257.9" r="3.2" fill="#e11d48"/>
<circle cx="729.8" cy="236.6" r="3.2" fill="#e11d48"/>
<circle cx="776.1" cy="244.9" r="3.2" fill="#e11d48"/>
<circle cx="822.3" cy="263.6" r="3.2" fill="#e11d48"/>
<circle cx="868.6" cy="261.1" r="3.2" fill="#e11d48"/>
<circle cx="914.9" cy="238.0" r="3.2" fill="#e11d48"/>
<circle cx="961.2" cy="242.6" r="3.2" fill="#e11d48"/>
<circle cx="1007.4" cy="255.5" r="3.2" fill="#e11d48"/>
<circle cx="1053.7" cy="256.6" r="3.2" fill="#e11d48"/>
<circle cx="1100.0" cy="246.1" r="3.2" fill="#e11d48"/>
<circle cx="1146.2" cy="239.7" r="3.2" fill="#e11d48"/>
<polyline points="82.0,244.0 91.3,243.5 100.5,245.4 109.8,252.4 119.0,254.0 128.3,257.5 137.5,259.0 146.8,264.0 156.0,264.5 165.3,267.3 174.5,263.4 183.8,263.0 193.1,258.5 202.3,242.2 211.6,242.1 220.8,239.2 230.1,235.0 239.3,234.1 248.6,237.9 257.8,230.9 267.1,232.5 276.3,236.2 285.6,241.3 294.8,256.3 304.1,256.6 313.4,256.8 322.6,256.1 331.9,261.4 341.1,265.2 350.4,264.6 359.6,264.2 368.9,261.4 378.1,260.1 387.4,244.9 396.6,242.8 405.9,243.7 415.2,241.4 424.4,238.4 433.7,238.1 442.9,234.8 452.2,229.4 461.4,237.7 470.7,243.5 479.9,245.7 489.2,243.7 498.4,246.5 507.7,251.3 516.9,257.8 526.2,262.5 535.5,264.2 544.7,264.5 554.0,265.8 563.2,259.4 572.5,255.3 581.7,254.3 591.0,254.7 600.2,247.1 609.5,239.3 618.7,239.0 628.0,241.1 637.3,240.5 646.5,235.1 655.8,240.2 665.0,239.3 674.3,241.9 683.5,241.4 692.8,254.5 702.0,256.1 711.3,254.1 720.5,260.0 729.8,269.2 739.1,267.9 748.3,270.1 757.6,268.5 766.8,264.7 776.1,256.0 785.3,251.4 794.6,248.2 803.8,243.4 813.1,244.8 822.3,235.5 831.6,231.1 840.8,232.6 850.1,229.2 859.4,238.5 868.6,244.2 877.9,248.5 887.1,248.7 896.4,251.0 905.6,257.1 914.9,260.2 924.1,261.2 933.4,263.0 942.6,256.7 951.9,254.4 961.2,256.9 970.4,252.4 979.7,249.9 988.9,248.2 998.2,247.8 1007.4,245.3 1016.7,244.9 1025.9,244.0 1035.2,244.1 1044.4,243.9 1053.7,242.5 1062.9,244.5 1072.2,245.5 1081.5,245.7 1090.7,245.4 1100.0,251.1 1109.2,252.3 1118.5,254.0 1127.7,255.2 1137.0,255.8 1146.2,254.6 1155.5,255.1 1164.7,255.4 1174.0,253.1" fill="none" stroke="#3b82b6" stroke-width="3" stroke-linejoin="round" stroke-linecap="round" stroke-dasharray="10 7"/>
<circle cx="82.0" cy="244.0" r="3.2" fill="#3b82b6"/>
<circle cx="128.3" cy="257.5" r="3.2" fill="#3b82b6"/>
<circle cx="174.5" cy="263.4" r="3.2" fill="#3b82b6"/>
<circle cx="220.8" cy="239.2" r="3.2" fill="#3b82b6"/>
<circle cx="267.1" cy="232.5" r="3.2" fill="#3b82b6"/>
<circle cx="313.4" cy="256.8" r="3.2" fill="#3b82b6"/>
<circle cx="359.6" cy="264.2" r="3.2" fill="#3b82b6"/>
<circle cx="405.9" cy="243.7" r="3.2" fill="#3b82b6"/>
<circle cx="452.2" cy="229.4" r="3.2" fill="#3b82b6"/>
<circle cx="498.4" cy="246.5" r="3.2" fill="#3b82b6"/>
<circle cx="544.7" cy="264.5" r="3.2" fill="#3b82b6"/>
<circle cx="591.0" cy="254.7" r="3.2" fill="#3b82b6"/>
<circle cx="637.3" cy="240.5" r="3.2" fill="#3b82b6"/>
<circle cx="683.5" cy="241.4" r="3.2" fill="#3b82b6"/>
<circle cx="729.8" cy="269.2" r="3.2" fill="#3b82b6"/>
<circle cx="776.1" cy="256.0" r="3.2" fill="#3b82b6"/>
<circle cx="822.3" cy="235.5" r="3.2" fill="#3b82b6"/>
<circle cx="868.6" cy="244.2" r="3.2" fill="#3b82b6"/>
<circle cx="914.9" cy="260.2" r="3.2" fill="#3b82b6"/>
<circle cx="961.2" cy="256.9" r="3.2" fill="#3b82b6"/>
<circle cx="1007.4" cy="245.3" r="3.2" fill="#3b82b6"/>
<circle cx="1053.7" cy="242.5" r="3.2" fill="#3b82b6"/>
<circle cx="1100.0" cy="251.1" r="3.2" fill="#3b82b6"/>
<circle cx="1146.2" cy="254.6" r="3.2" fill="#3b82b6"/>
<polyline points="82.0,208.5 91.3,208.5 100.5,181.6 109.8,198.0 119.0,202.5 128.3,196.5 137.5,185.8 146.8,172.6 156.0,152.0 165.3,176.9 174.5,166.7 183.8,198.7 193.1,189.6 202.3,284.7 211.6,300.7 220.8,305.9 230.1,312.8 239.3,349.8 248.6,351.7 257.8,334.6 267.1,308.3 276.3,298.7 285.6,283.5 294.8,287.9 304.1,221.0 313.4,209.8 322.6,197.0 331.9,177.6 341.1,181.4 350.4,153.0 359.6,168.3 368.9,184.8 378.1,201.4 387.4,216.5 396.6,276.5 405.9,285.0 415.2,300.0 424.4,313.8 433.7,328.4 442.9,369.2 452.2,359.3 461.4,355.8 470.7,290.1 479.9,231.1 489.2,218.9 498.4,217.4 507.7,203.2 516.9,162.4 526.2,120.7 535.5,129.0 544.7,100.8 554.0,147.5 563.2,190.6 572.5,225.5 581.7,269.9 591.0,282.5 600.2,338.8 609.5,340.8 618.7,354.8 628.0,363.2 637.3,342.3 646.5,325.3 655.8,312.6 665.0,294.8 674.3,288.2 683.5,293.6 692.8,292.1 702.0,226.7 711.3,209.2 720.5,194.7 729.8,186.6 739.1,205.3 748.3,179.5 757.6,191.5 766.8,197.8 776.1,228.6 785.3,261.2 794.6,246.3 803.8,255.9 813.1,287.0 822.3,321.7 831.6,324.3 840.8,325.0 850.1,340.3 859.4,331.5 868.6,309.4 877.9,293.1 887.1,250.5 896.4,241.5 905.6,189.1 914.9,193.8 924.1,212.4 933.4,203.5 942.6,206.3 951.9,183.0 961.2,217.2 970.4,229.1 979.7,269.1 988.9,270.2 998.2,278.5 1007.4,281.4 1016.7,280.5 1025.9,292.8 1035.2,298.2 1044.4,298.1 1053.7,286.9 1062.9,278.6 1072.2,285.9 1081.5,266.1 1090.7,264.4 1100.0,234.7 1109.2,232.6 1118.5,223.4 1127.7,215.4 1137.0,206.9 1146.2,202.9 1155.5,205.7 1164.7,212.3 1174.0,212.1" fill="none" stroke="#f97316" stroke-width="3" stroke-linejoin="round" stroke-linecap="round"/>
<circle cx="82.0" cy="208.5" r="3.2" fill="#f97316"/>
<circle cx="128.3" cy="196.5" r="3.2" fill="#f97316"/>
<circle cx="174.5" cy="166.7" r="3.2" fill="#f97316"/>
<circle cx="220.8" cy="305.9" r="3.2" fill="#f97316"/>
<circle cx="267.1" cy="308.3" r="3.2" fill="#f97316"/>
<circle cx="313.4" cy="209.8" r="3.2" fill="#f97316"/>
<circle cx="359.6" cy="168.3" r="3.2" fill="#f97316"/>
<circle cx="405.9" cy="285.0" r="3.2" fill="#f97316"/>
<circle cx="452.2" cy="359.3" r="3.2" fill="#f97316"/>
<circle cx="498.4" cy="217.4" r="3.2" fill="#f97316"/>
<circle cx="544.7" cy="100.8" r="3.2" fill="#f97316"/>
<circle cx="591.0" cy="282.5" r="3.2" fill="#f97316"/>
<circle cx="637.3" cy="342.3" r="3.2" fill="#f97316"/>
<circle cx="683.5" cy="293.6" r="3.2" fill="#f97316"/>
<circle cx="729.8" cy="186.6" r="3.2" fill="#f97316"/>
<circle cx="776.1" cy="228.6" r="3.2" fill="#f97316"/>
<circle cx="822.3" cy="321.7" r="3.2" fill="#f97316"/>
<circle cx="868.6" cy="309.4" r="3.2" fill="#f97316"/>
<circle cx="914.9" cy="193.8" r="3.2" fill="#f97316"/>
<circle cx="961.2" cy="217.2" r="3.2" fill="#f97316"/>
<circle cx="1007.4" cy="281.4" r="3.2" fill="#f97316"/>
<circle cx="1053.7" cy="286.9" r="3.2" fill="#f97316"/>
<circle cx="1100.0" cy="234.7" r="3.2" fill="#f97316"/>
<circle cx="1146.2" cy="202.9" r="3.2" fill="#f97316"/>
<polyline points="82.0,223.9 91.3,221.7 100.5,231.1 109.8,265.8 119.0,274.3 128.3,291.5 137.5,299.1 146.8,324.0 156.0,326.7 165.3,340.9 174.5,321.1 183.8,318.9 193.1,296.3 202.3,215.1 211.6,214.9 220.8,200.0 230.1,178.8 239.3,174.5 248.6,193.3 257.8,158.3 267.1,166.7 276.3,184.9 285.6,210.4 294.8,285.6 304.1,287.2 313.4,288.0 322.6,284.9 331.9,311.1 341.1,330.2 350.4,327.3 359.6,325.4 368.9,310.9 378.1,304.6 387.4,228.3 396.6,218.1 405.9,222.3 415.2,210.9 424.4,195.8 433.7,194.6 442.9,178.3 452.2,151.2 461.4,192.5 470.7,221.5 479.9,232.7 489.2,222.4 498.4,236.3 507.7,260.7 516.9,293.1 526.2,316.4 535.5,325.0 544.7,326.9 554.0,332.8 563.2,301.2 572.5,280.3 581.7,275.7 591.0,277.3 600.2,239.5 609.5,200.7 618.7,198.8 628.0,209.4 637.3,206.5 646.5,179.5 655.8,205.0 665.0,200.8 674.3,213.2 683.5,211.0 692.8,276.6 702.0,284.9 711.3,274.8 720.5,304.1 729.8,350.0 739.1,343.8 748.3,354.6 757.6,346.7 766.8,327.6 776.1,284.3 785.3,261.2 794.6,245.2 803.8,220.8 813.1,227.7 822.3,181.4 831.6,159.3 840.8,166.9 850.1,150.2 859.4,196.5 868.6,224.7 877.9,246.7 887.1,247.6 896.4,259.1 905.6,289.4 914.9,305.2 924.1,309.6 933.4,318.8 942.6,287.5 951.9,276.1 961.2,288.8 970.4,266.1 979.7,253.2 988.9,244.9 998.2,243.4 1007.4,230.7 1016.7,228.1 1025.9,223.9 1035.2,224.4 1044.4,223.4 1053.7,216.9 1062.9,226.1 1072.2,231.7 1081.5,232.5 1090.7,231.0 1100.0,259.5 1109.2,265.6 1118.5,274.2 1127.7,279.7 1137.0,282.9 1146.2,276.8 1155.5,279.4 1164.7,280.9 1174.0,269.2" fill="none" stroke="#7c3aed" stroke-width="3" stroke-linejoin="round" stroke-linecap="round" stroke-dasharray="10 7"/>
<circle cx="82.0" cy="223.9" r="3.2" fill="#7c3aed"/>
<circle cx="128.3" cy="291.5" r="3.2" fill="#7c3aed"/>
<circle cx="174.5" cy="321.1" r="3.2" fill="#7c3aed"/>
<circle cx="220.8" cy="200.0" r="3.2" fill="#7c3aed"/>
<circle cx="267.1" cy="166.7" r="3.2" fill="#7c3aed"/>
<circle cx="313.4" cy="288.0" r="3.2" fill="#7c3aed"/>
<circle cx="359.6" cy="325.4" r="3.2" fill="#7c3aed"/>
<circle cx="405.9" cy="222.3" r="3.2" fill="#7c3aed"/>
<circle cx="452.2" cy="151.2" r="3.2" fill="#7c3aed"/>
<circle cx="498.4" cy="236.3" r="3.2" fill="#7c3aed"/>
<circle cx="544.7" cy="326.9" r="3.2" fill="#7c3aed"/>
<circle cx="591.0" cy="277.3" r="3.2" fill="#7c3aed"/>
<circle cx="637.3" cy="206.5" r="3.2" fill="#7c3aed"/>
<circle cx="683.5" cy="211.0" r="3.2" fill="#7c3aed"/>
<circle cx="729.8" cy="350.0" r="3.2" fill="#7c3aed"/>
<circle cx="776.1" cy="284.3" r="3.2" fill="#7c3aed"/>
<circle cx="822.3" cy="181.4" r="3.2" fill="#7c3aed"/>
<circle cx="868.6" cy="224.7" r="3.2" fill="#7c3aed"/>
<circle cx="914.9" cy="305.2" r="3.2" fill="#7c3aed"/>
<circle cx="961.2" cy="288.8" r="3.2" fill="#7c3aed"/>
<circle cx="1007.4" cy="230.7" r="3.2" fill="#7c3aed"/>
<circle cx="1053.7" cy="216.9" r="3.2" fill="#7c3aed"/>
<circle cx="1100.0" cy="259.5" r="3.2" fill="#7c3aed"/>
<circle cx="1146.2" cy="276.8" r="3.2" fill="#7c3aed"/>
<line x1="100" y1="74" x2="134" y2="74" stroke="#e11d48" stroke-width="4" stroke-linecap="round"/>
<text x="144" y="79" font-family="Arial, sans-serif" font-size="17" fill="#e11d48" font-weight="700">WSO-calibrated North</text>
<line x1="360" y1="74" x2="394" y2="74" stroke="#3b82b6" stroke-width="4" stroke-linecap="round" stroke-dasharray="10 7"/>
<text x="404" y="79" font-family="Arial, sans-serif" font-size="17" fill="#3b82b6" font-weight="700">WSO-calibrated South</text>
<line x1="100" y1="102" x2="134" y2="102" stroke="#f97316" stroke-width="4" stroke-linecap="round"/>
<text x="144" y="107" font-family="Arial, sans-serif" font-size="17" fill="#f97316" font-weight="700">AFT-calibrated North</text>
<line x1="360" y1="102" x2="394" y2="102" stroke="#7c3aed" stroke-width="4" stroke-linecap="round" stroke-dasharray="10 7"/>
<text x="404" y="107" font-family="Arial, sans-serif" font-size="17" fill="#7c3aed" font-weight="700">AFT-calibrated South</text>
</svg>